<svg xmlns="http://www.w3.org/2000/svg" xmlns:xlink="http://www.w3.org/1999/xlink" width="2000" zoomAndPan="magnify" viewBox="0 0 1500 1499.999933" height="2000" preserveAspectRatio="xMidYMid meet" version="1.0"><defs><clipPath id="6a8f4c879b"><path d="M 113.691406 170.25 L 663.308594 170.25 L 663.308594 719.867188 L 113.691406 719.867188 Z M 113.691406 170.25 " clip-rule="nonzero"/></clipPath><clipPath id="c918332644"><path d="M 388.5 170.25 C 236.726562 170.25 113.691406 293.289062 113.691406 445.058594 C 113.691406 596.832031 236.726562 719.867188 388.5 719.867188 C 540.273438 719.867188 663.308594 596.832031 663.308594 445.058594 C 663.308594 293.289062 540.273438 170.25 388.5 170.25 Z M 388.5 170.25 " clip-rule="nonzero"/></clipPath><clipPath id="1aba3063ed"><path d="M 0.691406 0.25 L 550.308594 0.25 L 550.308594 549.867188 L 0.691406 549.867188 Z M 0.691406 0.25 " clip-rule="nonzero"/></clipPath><clipPath id="e99d7fd90b"><path d="M 275.5 0.25 C 123.726562 0.25 0.691406 123.289062 0.691406 275.058594 C 0.691406 426.832031 123.726562 549.867188 275.5 549.867188 C 427.273438 549.867188 550.308594 426.832031 550.308594 275.058594 C 550.308594 123.289062 427.273438 0.25 275.5 0.25 Z M 275.5 0.25 " clip-rule="nonzero"/></clipPath><clipPath id="1433f33f57"><rect x="0" width="551" y="0" height="550"/></clipPath><clipPath id="139d8ccb04"><path d="M 101.242188 651.269531 L 650.855469 651.269531 L 650.855469 1200.886719 L 101.242188 1200.886719 Z M 101.242188 651.269531 " clip-rule="nonzero"/></clipPath><clipPath id="d8921b27ea"><path d="M 376.046875 651.269531 C 224.277344 651.269531 101.242188 774.304688 101.242188 926.078125 C 101.242188 1077.851562 224.277344 1200.886719 376.046875 1200.886719 C 527.820312 1200.886719 650.855469 1077.851562 650.855469 926.078125 C 650.855469 774.304688 527.820312 651.269531 376.046875 651.269531 Z M 376.046875 651.269531 " clip-rule="nonzero"/></clipPath><clipPath id="89d6c15ae2"><path d="M 0.242188 0.269531 L 549.855469 0.269531 L 549.855469 549.886719 L 0.242188 549.886719 Z M 0.242188 0.269531 " clip-rule="nonzero"/></clipPath><clipPath id="72ec741f34"><path d="M 275.046875 0.269531 C 123.277344 0.269531 0.242188 123.304688 0.242188 275.078125 C 0.242188 426.851562 123.277344 549.886719 275.046875 549.886719 C 426.820312 549.886719 549.855469 426.851562 549.855469 275.078125 C 549.855469 123.304688 426.820312 0.269531 275.046875 0.269531 Z M 275.046875 0.269531 " clip-rule="nonzero"/></clipPath><clipPath id="0f0f669d7a"><rect x="0" width="550" y="0" height="550"/></clipPath><clipPath id="a196c25c3e"><path d="M 552.832031 823.300781 L 1102.445312 823.300781 L 1102.445312 1372.917969 L 552.832031 1372.917969 Z M 552.832031 823.300781 " clip-rule="nonzero"/></clipPath><clipPath id="e5a01e44fc"><path d="M 827.640625 823.300781 C 675.867188 823.300781 552.832031 946.339844 552.832031 1098.109375 C 552.832031 1249.882812 675.867188 1372.917969 827.640625 1372.917969 C 979.410156 1372.917969 1102.445312 1249.882812 1102.445312 1098.109375 C 1102.445312 946.339844 979.410156 823.300781 827.640625 823.300781 Z M 827.640625 823.300781 " clip-rule="nonzero"/></clipPath><clipPath id="37982d485f"><path d="M 0.832031 0.300781 L 550.445312 0.300781 L 550.445312 549.917969 L 0.832031 549.917969 Z M 0.832031 0.300781 " clip-rule="nonzero"/></clipPath><clipPath id="f6ad4142db"><path d="M 275.640625 0.300781 C 123.867188 0.300781 0.832031 123.339844 0.832031 275.109375 C 0.832031 426.882812 123.867188 549.917969 275.640625 549.917969 C 427.410156 549.917969 550.445312 426.882812 550.445312 275.109375 C 550.445312 123.339844 427.410156 0.300781 275.640625 0.300781 Z M 275.640625 0.300781 " clip-rule="nonzero"/></clipPath><clipPath id="675ebdfae0"><rect x="0" width="551" y="0" height="550"/></clipPath><clipPath id="e66cfe12da"><path d="M 849.144531 559.246094 L 1398.757812 559.246094 L 1398.757812 1108.863281 L 849.144531 1108.863281 Z M 849.144531 559.246094 " clip-rule="nonzero"/></clipPath><clipPath id="e1077996bc"><path d="M 1123.953125 559.246094 C 972.179688 559.246094 849.144531 682.28125 849.144531 834.054688 C 849.144531 985.828125 972.179688 1108.863281 1123.953125 1108.863281 C 1275.722656 1108.863281 1398.757812 985.828125 1398.757812 834.054688 C 1398.757812 682.28125 1275.722656 559.246094 1123.953125 559.246094 Z M 1123.953125 559.246094 " clip-rule="nonzero"/></clipPath><clipPath id="aba727dc65"><path d="M 0.144531 0.246094 L 549.757812 0.246094 L 549.757812 549.863281 L 0.144531 549.863281 Z M 0.144531 0.246094 " clip-rule="nonzero"/></clipPath><clipPath id="96126308d1"><path d="M 274.953125 0.246094 C 123.179688 0.246094 0.144531 123.28125 0.144531 275.054688 C 0.144531 426.828125 123.179688 549.863281 274.953125 549.863281 C 426.722656 549.863281 549.757812 426.828125 549.757812 275.054688 C 549.757812 123.28125 426.722656 0.246094 274.953125 0.246094 Z M 274.953125 0.246094 " clip-rule="nonzero"/></clipPath><clipPath id="7cceed353a"><rect x="0" width="550" y="0" height="550"/></clipPath><clipPath id="dcd8e66cb7"><path d="M 595.839844 127.082031 L 1145.457031 127.082031 L 1145.457031 676.699219 L 595.839844 676.699219 Z M 595.839844 127.082031 " clip-rule="nonzero"/></clipPath><clipPath id="bc760de87b"><path d="M 870.648438 127.082031 C 718.875 127.082031 595.839844 250.117188 595.839844 401.890625 C 595.839844 553.660156 718.875 676.699219 870.648438 676.699219 C 1022.417969 676.699219 1145.457031 553.660156 1145.457031 401.890625 C 1145.457031 250.117188 1022.417969 127.082031 870.648438 127.082031 Z M 870.648438 127.082031 " clip-rule="nonzero"/></clipPath><clipPath id="c3b3bb55f6"><path d="M 0.839844 0.0820312 L 550.457031 0.0820312 L 550.457031 549.699219 L 0.839844 549.699219 Z M 0.839844 0.0820312 " clip-rule="nonzero"/></clipPath><clipPath id="74a0e08c31"><path d="M 275.648438 0.0820312 C 123.875 0.0820312 0.839844 123.117188 0.839844 274.890625 C 0.839844 426.660156 123.875 549.699219 275.648438 549.699219 C 427.417969 549.699219 550.457031 426.660156 550.457031 274.890625 C 550.457031 123.117188 427.417969 0.0820312 275.648438 0.0820312 Z M 275.648438 0.0820312 " clip-rule="nonzero"/></clipPath><clipPath id="6386d11812"><rect x="0" width="551" y="0" height="550"/></clipPath><clipPath id="c1cf149685"><path d="M 502.816406 523.578125 L 905.316406 523.578125 L 905.316406 926.078125 L 502.816406 926.078125 Z M 502.816406 523.578125 " clip-rule="nonzero"/></clipPath><clipPath id="d0782ea878"><path d="M 704.066406 523.578125 C 592.917969 523.578125 502.816406 613.679688 502.816406 724.828125 C 502.816406 835.976562 592.917969 926.078125 704.066406 926.078125 C 815.210938 926.078125 905.316406 835.976562 905.316406 724.828125 C 905.316406 613.679688 815.210938 523.578125 704.066406 523.578125 Z M 704.066406 523.578125 " clip-rule="nonzero"/></clipPath><clipPath id="fffc29a745"><path d="M 0.816406 0.578125 L 403.316406 0.578125 L 403.316406 403.078125 L 0.816406 403.078125 Z M 0.816406 0.578125 " clip-rule="nonzero"/></clipPath><clipPath id="f3d14d8656"><path d="M 202.066406 0.578125 C 90.917969 0.578125 0.816406 90.679688 0.816406 201.828125 C 0.816406 312.976562 90.917969 403.078125 202.066406 403.078125 C 313.210938 403.078125 403.316406 312.976562 403.316406 201.828125 C 403.316406 90.679688 313.210938 0.578125 202.066406 0.578125 Z M 202.066406 0.578125 " clip-rule="nonzero"/></clipPath><clipPath id="c6222606a1"><rect x="0" width="404" y="0" height="404"/></clipPath></defs><g clip-path="url(#6a8f4c879b)"><g clip-path="url(#c918332644)"><g transform="matrix(1, 0, 0, 1, 113, 170)"><g clip-path="url(#1433f33f57)"><g clip-path="url(#1aba3063ed)"><g clip-path="url(#e99d7fd90b)"><path fill="#f1dce3" d="M 0.691406 0.25 L 550.308594 0.25 L 550.308594 549.867188 L 0.691406 549.867188 Z M 0.691406 0.25 " fill-opacity="1" fill-rule="nonzero"/></g></g></g></g></g></g><g clip-path="url(#139d8ccb04)"><g clip-path="url(#d8921b27ea)"><g transform="matrix(1, 0, 0, 1, 101, 651)"><g clip-path="url(#0f0f669d7a)"><g clip-path="url(#89d6c15ae2)"><g clip-path="url(#72ec741f34)"><path fill="#f1dce3" d="M 0.242188 0.269531 L 549.855469 0.269531 L 549.855469 549.886719 L 0.242188 549.886719 Z M 0.242188 0.269531 " fill-opacity="1" fill-rule="nonzero"/></g></g></g></g></g></g><g clip-path="url(#a196c25c3e)"><g clip-path="url(#e5a01e44fc)"><g transform="matrix(1, 0, 0, 1, 552, 823)"><g clip-path="url(#675ebdfae0)"><g clip-path="url(#37982d485f)"><g clip-path="url(#f6ad4142db)"><path fill="#f1dce3" d="M 0.832031 0.300781 L 550.445312 0.300781 L 550.445312 549.917969 L 0.832031 549.917969 Z M 0.832031 0.300781 " fill-opacity="1" fill-rule="nonzero"/></g></g></g></g></g></g><g clip-path="url(#e66cfe12da)"><g clip-path="url(#e1077996bc)"><g transform="matrix(1, 0, 0, 1, 849, 559)"><g clip-path="url(#7cceed353a)"><g clip-path="url(#aba727dc65)"><g clip-path="url(#96126308d1)"><path fill="#f1dce3" d="M 0.144531 0.246094 L 549.757812 0.246094 L 549.757812 549.863281 L 0.144531 549.863281 Z M 0.144531 0.246094 " fill-opacity="1" fill-rule="nonzero"/></g></g></g></g></g></g><g clip-path="url(#dcd8e66cb7)"><g clip-path="url(#bc760de87b)"><g transform="matrix(1, 0, 0, 1, 595, 127)"><g clip-path="url(#6386d11812)"><g clip-path="url(#c3b3bb55f6)"><g clip-path="url(#74a0e08c31)"><path fill="#f1dce3" d="M 0.839844 0.0820312 L 550.457031 0.0820312 L 550.457031 549.699219 L 0.839844 549.699219 Z M 0.839844 0.0820312 " fill-opacity="1" fill-rule="nonzero"/></g></g></g></g></g></g><g clip-path="url(#c1cf149685)"><g clip-path="url(#d0782ea878)"><g transform="matrix(1, 0, 0, 1, 502, 523)"><g clip-path="url(#c6222606a1)"><g clip-path="url(#fffc29a745)"><g clip-path="url(#f3d14d8656)"><path fill="#efa3bc" d="M 0.816406 0.578125 L 403.316406 0.578125 L 403.316406 403.078125 L 0.816406 403.078125 Z M 0.816406 0.578125 " fill-opacity="1" fill-rule="nonzero"/></g></g></g></g></g></g></svg>