<svg xmlns="http://www.w3.org/2000/svg" xmlns:xlink="http://www.w3.org/1999/xlink" width="2000" zoomAndPan="magnify" viewBox="0 0 1500 1499.999933" height="2000" preserveAspectRatio="xMidYMid meet" version="1.0"><defs><clipPath id="58ff2fb404"><path d="M 12.691406 44.25 L 562.308594 44.25 L 562.308594 593.867188 L 12.691406 593.867188 Z M 12.691406 44.25 " clip-rule="nonzero"/></clipPath><clipPath id="6b86e319aa"><path d="M 287.5 44.25 C 135.726562 44.25 12.691406 167.289062 12.691406 319.058594 C 12.691406 470.832031 135.726562 593.867188 287.5 593.867188 C 439.273438 593.867188 562.308594 470.832031 562.308594 319.058594 C 562.308594 167.289062 439.273438 44.25 287.5 44.25 Z M 287.5 44.25 " clip-rule="nonzero"/></clipPath><clipPath id="3c95603de6"><path d="M 0.691406 0.25 L 550.308594 0.25 L 550.308594 549.867188 L 0.691406 549.867188 Z M 0.691406 0.25 " clip-rule="nonzero"/></clipPath><clipPath id="9a7a4a8057"><path d="M 275.5 0.25 C 123.726562 0.25 0.691406 123.289062 0.691406 275.058594 C 0.691406 426.832031 123.726562 549.867188 275.5 549.867188 C 427.273438 549.867188 550.308594 426.832031 550.308594 275.058594 C 550.308594 123.289062 427.273438 0.25 275.5 0.25 Z M 275.5 0.25 " clip-rule="nonzero"/></clipPath><clipPath id="5091ef5ec6"><rect x="0" width="551" y="0" height="550"/></clipPath><clipPath id="b178ee3f44"><path d="M 0.242188 525.269531 L 549.855469 525.269531 L 549.855469 1074.886719 L 0.242188 1074.886719 Z M 0.242188 525.269531 " clip-rule="nonzero"/></clipPath><clipPath id="7acbb46be4"><path d="M 275.046875 525.269531 C 123.277344 525.269531 0.242188 648.304688 0.242188 800.078125 C 0.242188 951.851562 123.277344 1074.886719 275.046875 1074.886719 C 426.820312 1074.886719 549.855469 951.851562 549.855469 800.078125 C 549.855469 648.304688 426.820312 525.269531 275.046875 525.269531 Z M 275.046875 525.269531 " clip-rule="nonzero"/></clipPath><clipPath id="1ac71be8b3"><path d="M 0.242188 0.269531 L 549.855469 0.269531 L 549.855469 549.886719 L 0.242188 549.886719 Z M 0.242188 0.269531 " clip-rule="nonzero"/></clipPath><clipPath id="c9076fe336"><path d="M 275.046875 0.269531 C 123.277344 0.269531 0.242188 123.304688 0.242188 275.078125 C 0.242188 426.851562 123.277344 549.886719 275.046875 549.886719 C 426.820312 549.886719 549.855469 426.851562 549.855469 275.078125 C 549.855469 123.304688 426.820312 0.269531 275.046875 0.269531 Z M 275.046875 0.269531 " clip-rule="nonzero"/></clipPath><clipPath id="e10ee28eb4"><rect x="0" width="550" y="0" height="550"/></clipPath><clipPath id="f47eb2ad3e"><path d="M 451.832031 697.300781 L 1001.445312 697.300781 L 1001.445312 1246.917969 L 451.832031 1246.917969 Z M 451.832031 697.300781 " clip-rule="nonzero"/></clipPath><clipPath id="c73eed6c66"><path d="M 726.640625 697.300781 C 574.867188 697.300781 451.832031 820.339844 451.832031 972.109375 C 451.832031 1123.882812 574.867188 1246.917969 726.640625 1246.917969 C 878.410156 1246.917969 1001.445312 1123.882812 1001.445312 972.109375 C 1001.445312 820.339844 878.410156 697.300781 726.640625 697.300781 Z M 726.640625 697.300781 " clip-rule="nonzero"/></clipPath><clipPath id="963e02736d"><path d="M 0.832031 0.300781 L 550.445312 0.300781 L 550.445312 549.917969 L 0.832031 549.917969 Z M 0.832031 0.300781 " clip-rule="nonzero"/></clipPath><clipPath id="984c350a8d"><path d="M 275.640625 0.300781 C 123.867188 0.300781 0.832031 123.339844 0.832031 275.109375 C 0.832031 426.882812 123.867188 549.917969 275.640625 549.917969 C 427.410156 549.917969 550.445312 426.882812 550.445312 275.109375 C 550.445312 123.339844 427.410156 0.300781 275.640625 0.300781 Z M 275.640625 0.300781 " clip-rule="nonzero"/></clipPath><clipPath id="fa38f87cc2"><rect x="0" width="551" y="0" height="550"/></clipPath><clipPath id="0046359165"><path d="M 748.144531 433.246094 L 1297.757812 433.246094 L 1297.757812 982.863281 L 748.144531 982.863281 Z M 748.144531 433.246094 " clip-rule="nonzero"/></clipPath><clipPath id="d65989f0e9"><path d="M 1022.953125 433.246094 C 871.179688 433.246094 748.144531 556.28125 748.144531 708.054688 C 748.144531 859.828125 871.179688 982.863281 1022.953125 982.863281 C 1174.722656 982.863281 1297.757812 859.828125 1297.757812 708.054688 C 1297.757812 556.28125 1174.722656 433.246094 1022.953125 433.246094 Z M 1022.953125 433.246094 " clip-rule="nonzero"/></clipPath><clipPath id="a873b63e4a"><path d="M 0.144531 0.246094 L 549.757812 0.246094 L 549.757812 549.863281 L 0.144531 549.863281 Z M 0.144531 0.246094 " clip-rule="nonzero"/></clipPath><clipPath id="e0b87e7a91"><path d="M 274.953125 0.246094 C 123.179688 0.246094 0.144531 123.28125 0.144531 275.054688 C 0.144531 426.828125 123.179688 549.863281 274.953125 549.863281 C 426.722656 549.863281 549.757812 426.828125 549.757812 275.054688 C 549.757812 123.28125 426.722656 0.246094 274.953125 0.246094 Z M 274.953125 0.246094 " clip-rule="nonzero"/></clipPath><clipPath id="7ebfddb79b"><rect x="0" width="550" y="0" height="550"/></clipPath><clipPath id="7bc83bd164"><path d="M 494.839844 1.082031 L 1044.457031 1.082031 L 1044.457031 550.699219 L 494.839844 550.699219 Z M 494.839844 1.082031 " clip-rule="nonzero"/></clipPath><clipPath id="86d1eb79f2"><path d="M 769.648438 1.082031 C 617.875 1.082031 494.839844 124.117188 494.839844 275.890625 C 494.839844 427.660156 617.875 550.699219 769.648438 550.699219 C 921.417969 550.699219 1044.457031 427.660156 1044.457031 275.890625 C 1044.457031 124.117188 921.417969 1.082031 769.648438 1.082031 Z M 769.648438 1.082031 " clip-rule="nonzero"/></clipPath><clipPath id="c9d61e9f19"><path d="M 0.839844 0.0820312 L 550.457031 0.0820312 L 550.457031 549.699219 L 0.839844 549.699219 Z M 0.839844 0.0820312 " clip-rule="nonzero"/></clipPath><clipPath id="065b5fcb78"><path d="M 275.648438 0.0820312 C 123.875 0.0820312 0.839844 123.117188 0.839844 274.890625 C 0.839844 426.660156 123.875 549.699219 275.648438 549.699219 C 427.417969 549.699219 550.457031 426.660156 550.457031 274.890625 C 550.457031 123.117188 427.417969 0.0820312 275.648438 0.0820312 Z M 275.648438 0.0820312 " clip-rule="nonzero"/></clipPath><clipPath id="04e4fcf6cc"><rect x="0" width="551" y="0" height="550"/></clipPath><clipPath id="89b3f2619d"><path d="M 401.816406 397.578125 L 804.316406 397.578125 L 804.316406 800.078125 L 401.816406 800.078125 Z M 401.816406 397.578125 " clip-rule="nonzero"/></clipPath><clipPath id="820e0d40c3"><path d="M 603.066406 397.578125 C 491.917969 397.578125 401.816406 487.679688 401.816406 598.828125 C 401.816406 709.976562 491.917969 800.078125 603.066406 800.078125 C 714.210938 800.078125 804.316406 709.976562 804.316406 598.828125 C 804.316406 487.679688 714.210938 397.578125 603.066406 397.578125 Z M 603.066406 397.578125 " clip-rule="nonzero"/></clipPath><clipPath id="b80b8c0b59"><path d="M 0.816406 0.578125 L 403.316406 0.578125 L 403.316406 403.078125 L 0.816406 403.078125 Z M 0.816406 0.578125 " clip-rule="nonzero"/></clipPath><clipPath id="9fb41118c1"><path d="M 202.066406 0.578125 C 90.917969 0.578125 0.816406 90.679688 0.816406 201.828125 C 0.816406 312.976562 90.917969 403.078125 202.066406 403.078125 C 313.210938 403.078125 403.316406 312.976562 403.316406 201.828125 C 403.316406 90.679688 313.210938 0.578125 202.066406 0.578125 Z M 202.066406 0.578125 " clip-rule="nonzero"/></clipPath><clipPath id="3c2182a56b"><rect x="0" width="404" y="0" height="404"/></clipPath><clipPath id="f0f4c8336c"><rect x="0" width="1298" y="0" height="1248"/></clipPath></defs><g transform="matrix(1, 0, 0, 1, 101, 126)"><g clip-path="url(#f0f4c8336c)"><g clip-path="url(#58ff2fb404)"><g clip-path="url(#6b86e319aa)"><g transform="matrix(1, 0, 0, 1, 12, 44)"><g clip-path="url(#5091ef5ec6)"><g clip-path="url(#3c95603de6)"><g clip-path="url(#9a7a4a8057)"><path fill="#efa3bc" d="M 0.691406 0.25 L 550.308594 0.25 L 550.308594 549.867188 L 0.691406 549.867188 Z M 0.691406 0.25 " fill-opacity="1" fill-rule="nonzero"/></g></g></g></g></g></g><g clip-path="url(#b178ee3f44)"><g clip-path="url(#7acbb46be4)"><g transform="matrix(1, 0, 0, 1, 0, 525)"><g clip-path="url(#e10ee28eb4)"><g clip-path="url(#1ac71be8b3)"><g clip-path="url(#c9076fe336)"><path fill="#efa3bc" d="M 0.242188 0.269531 L 549.855469 0.269531 L 549.855469 549.886719 L 0.242188 549.886719 Z M 0.242188 0.269531 " fill-opacity="1" fill-rule="nonzero"/></g></g></g></g></g></g><g clip-path="url(#f47eb2ad3e)"><g clip-path="url(#c73eed6c66)"><g transform="matrix(1, 0, 0, 1, 451, 697)"><g clip-path="url(#fa38f87cc2)"><g clip-path="url(#963e02736d)"><g clip-path="url(#984c350a8d)"><path fill="#efa3bc" d="M 0.832031 0.300781 L 550.445312 0.300781 L 550.445312 549.917969 L 0.832031 549.917969 Z M 0.832031 0.300781 " fill-opacity="1" fill-rule="nonzero"/></g></g></g></g></g></g><g clip-path="url(#0046359165)"><g clip-path="url(#d65989f0e9)"><g transform="matrix(1, 0, 0, 1, 748, 433)"><g clip-path="url(#7ebfddb79b)"><g clip-path="url(#a873b63e4a)"><g clip-path="url(#e0b87e7a91)"><path fill="#efa3bc" d="M 0.144531 0.246094 L 549.757812 0.246094 L 549.757812 549.863281 L 0.144531 549.863281 Z M 0.144531 0.246094 " fill-opacity="1" fill-rule="nonzero"/></g></g></g></g></g></g><g clip-path="url(#7bc83bd164)"><g clip-path="url(#86d1eb79f2)"><g transform="matrix(1, 0, 0, 1, 494, 1)"><g clip-path="url(#04e4fcf6cc)"><g clip-path="url(#c9d61e9f19)"><g clip-path="url(#065b5fcb78)"><path fill="#efa3bc" d="M 0.839844 0.0820312 L 550.457031 0.0820312 L 550.457031 549.699219 L 0.839844 549.699219 Z M 0.839844 0.0820312 " fill-opacity="1" fill-rule="nonzero"/></g></g></g></g></g></g><g clip-path="url(#89b3f2619d)"><g clip-path="url(#820e0d40c3)"><g transform="matrix(1, 0, 0, 1, 401, 397)"><g clip-path="url(#3c2182a56b)"><g clip-path="url(#b80b8c0b59)"><g clip-path="url(#9fb41118c1)"><path fill="#f1dce3" d="M 0.816406 0.578125 L 403.316406 0.578125 L 403.316406 403.078125 L 0.816406 403.078125 Z M 0.816406 0.578125 " fill-opacity="1" fill-rule="nonzero"/></g></g></g></g></g></g></g></g></svg>